HIERARCHY
ROOT root
{
	OFFSET	0	13.1	24.9
	CHANNELS 6  Xposition Yposition Zposition Xrotation Yrotation Zrotation
	JOINT spine_1
	{
		OFFSET	0	9.99999	0
		CHANNELS 3  Xrotation Yrotation Zrotation
		JOINT spine_2
		{
			OFFSET	0	112	-10
			CHANNELS 3  Xrotation Yrotation Zrotation
			JOINT spine_3
			{
				OFFSET	0	206.5	19.3
				CHANNELS 3  Xrotation Yrotation Zrotation
				JOINT spine_4
				{
					OFFSET	0	110.4	14.6
					CHANNELS 3  Xrotation Yrotation Zrotation
					JOINT neck_1
					{
						OFFSET	0	71.8	-50.3
						CHANNELS 3  Xrotation Yrotation Zrotation
						JOINT neck_2
						{
							OFFSET	0	86.2	-25.8
							CHANNELS 3  Xrotation Yrotation Zrotation
							JOINT head_ee
							{
								OFFSET	0	179.8	-8.7
								CHANNELS 3  Xrotation Yrotation Zrotation
								End Site
								{
									OFFSET	1	0	0
								}
							}
						}
					}
					JOINT left_clavicle
					{
						OFFSET	-43.2	22.4	-70.8
						CHANNELS 3  Xrotation Yrotation Zrotation
						JOINT left_shoulder
						{
							OFFSET	-93.9	-5.79999	48.7
							CHANNELS 3  Xrotation Yrotation Zrotation
							JOINT left_elbow
							{
								OFFSET	-291.4	-30.8	15.2
								CHANNELS 3  Xrotation Yrotation Zrotation
								JOINT left_lowarm_twist
								{
									OFFSET	-110.7	-3.89999	13.6
									CHANNELS 3  Xrotation Yrotation Zrotation
									JOINT left_hand
									{
										OFFSET	-110.7	-3.89999	13.6
										CHANNELS 3  Xrotation Yrotation Zrotation
										JOINT left_ee
										{
											OFFSET	-80.8	-5.10001	12.1
											CHANNELS 3  Xrotation Yrotation Zrotation
											End Site
											{
												OFFSET	1	0	0
											}
										}
									}
								}
							}
						}
					}
					JOINT right_clavicle
					{
						OFFSET	43.2	22.4	-70.8
						CHANNELS 3  Xrotation Yrotation Zrotation
						JOINT right_shoulder
						{
							OFFSET	93.9	-5.79999	48.7
							CHANNELS 3  Xrotation Yrotation Zrotation
							JOINT right_elbow
							{
								OFFSET	291.4	-30.8	15.2
								CHANNELS 3  Xrotation Yrotation Zrotation
								JOINT right_lowarm_twist
								{
									OFFSET	110.7	-3.89999	13.6
									CHANNELS 3  Xrotation Yrotation Zrotation
									JOINT right_hand
									{
										OFFSET	110.7	-3.89999	13.6
										CHANNELS 3  Xrotation Yrotation Zrotation
										JOINT right_ee
										{
											OFFSET	80.8	-5.10001	12.1
											CHANNELS 3  Xrotation Yrotation Zrotation
											End Site
											{
												OFFSET	1	0	0
											}
										}
									}
								}
							}
						}
					}
				}
			}
		}
	}
	JOINT left_hip
	{
		OFFSET	-82.8	-127.5	0.300001
		CHANNELS 3  Xrotation Yrotation Zrotation
		JOINT left_knee
		{
			OFFSET	-28.2	-396.7	2.2
			CHANNELS 3  Xrotation Yrotation Zrotation
			JOINT left_ankle
			{
				OFFSET	-11.7	-411.3	35.4
				CHANNELS 3  Xrotation Yrotation Zrotation
				JOINT left_toes
				{
					OFFSET	0	-60	-88.6
					CHANNELS 3  Xrotation Yrotation Zrotation
					JOINT left_foot_ee
					{
						OFFSET	-22.5	-16.5	-42.2
						CHANNELS 3  Xrotation Yrotation Zrotation
						End Site
						{
							OFFSET	1	0	0
						}
					}
				}
			}
		}
	}
	JOINT right_hip
	{
		OFFSET	82.8	-127.5	0.300001
		CHANNELS 3  Xrotation Yrotation Zrotation
		JOINT right_knee
		{
			OFFSET	28.2	-396.7	2.2
			CHANNELS 3  Xrotation Yrotation Zrotation
			JOINT right_ankle
			{
				OFFSET	11.7	-411.3	35.4
				CHANNELS 3  Xrotation Yrotation Zrotation
				JOINT right_toes
				{
					OFFSET	0	-60	-88.6
					CHANNELS 3  Xrotation Yrotation Zrotation
					JOINT right_foot_ee
					{
						OFFSET	22.5	-16.5	-42.2
						CHANNELS 3  Xrotation Yrotation Zrotation
						End Site
						{
							OFFSET	1	0	0
						}
					}
				}
			}
		}
	}
}
MOTION
Frames: 6
Frame Time: 0.02
3498.28 736.717 -1422.5 3.04771 63.1008 -0.776398 -0.00428728 0.293125 -0.199292 -0.00431714 0.305212 -0.180236 -0.00531999 0.336287 -0.112028 -0.00519923 0.314374 -0.163732 -28.8102 16.3317 3.51604 -31.2912 29.97 13.4735 -0.0 0.0 -0.0 4.28958 10.5753 8.61072 -10.7319 -13.7805 60.8823 2.05562 -45.514 0.862366 -0.646141 -0.0232139 0.0792513 -0.542496 1.77866 -2.85736 -0.0 0.0 -0.0 10.8261 7.4791 -21.6452 -22.1589 4.83626 -55.5267 0.89171 23.8321 -0.188177 41.8969 0.451587 5.21545 3.34347 -30.2409 -31.238 0.0 0.0 0.0 -0.0109666 27.495 -5.41088 -3.81316 0.138111 0.568798 19.6138 -15.7834 -2.91217 5.2607 -0.0 -0.0 -0.0 0.0 -0.0 8.98188 -6.6545 2.2117 -0.897591 -0.0359171 -0.133063 15.4771 19.7932 2.42411 -9.27063 0.0 0.0 0.0 0.0 0.0 
3496.68 736.339 -1426.31 2.4948 63.2562 -0.046374 -0.160387 0.133951 -0.199373 -0.160377 0.146366 -0.190445 -0.160874 0.18356 -0.154913 -0.160873 0.156791 -0.181959 -29.1677 16.2965 2.30364 -31.7869 30.308 12.4784 -0.0 0.0 -0.0 4.22659 11.7951 8.52321 -11.0713 -15.2572 60.5016 2.3203 -48.9694 1.05679 -1.92187 -0.071668 0.234942 -0.669804 0.885714 -4.09241 -0.0 0.0 -0.0 10.8536 8.5535 -21.7138 -22.0433 4.89165 -55.6321 0.858969 23.0499 -0.175152 42.3425 0.476677 5.26663 3.40983 -30.2836 -31.6734 0.0 0.0 0.0 2.19576 29.6802 -7.24177 -7.88785 0.243501 1.18511 16.8638 -13.5871 -2.49976 12.0112 -0.0 -0.0 -0.0 0.0 -0.0 8.92203 -7.6707 2.07738 -0.0689287 -0.00283236 -0.0101985 14.7713 29.8928 2.59612 -9.034 0.0 0.0 0.0 0.0 0.0 
3495.45 738.119 -1428.23 2.68241 63.6466 -0.16159 -0.254506 0.0978167 -0.223201 -0.254485 0.111821 -0.216524 -0.254911 0.155668 -0.187494 -0.254938 0.124103 -0.209726 -28.5791 16.3457 1.41751 -31.2163 30.7322 11.5293 -0.0 0.0 -0.0 4.20353 12.6856 8.49771 -11.1259 -16.3718 60.0866 2.51991 -51.2936 1.21002 -2.40935 -0.0910981 0.294149 -0.96271 1.24236 -5.894 -0.0 0.0 -0.0 10.7724 9.32 -21.5355 -22.6978 5.34354 -55.7747 0.84387 22.6861 -0.169284 43.326 0.533469 5.37891 3.42506 -30.2186 -31.7651 0.0 0.0 0.0 3.20849 30.0367 -7.51386 -9.8246 0.278165 1.48026 16.2289 -10.3755 -2.36583 14.4707 -0.0 -0.0 -0.0 0.0 -0.0 8.62102 -7.32746 1.78262 -0.707988 -0.0285041 -0.10491 12.7375 30.7665 2.28826 -9.32546 0.0 0.0 0.0 0.0 0.0 
3493.05 740.982 -1435.78 2.50179 64.6083 -0.00950631 -0.354422 0.03193 -0.20696 -0.354399 0.0450347 -0.204508 -0.354553 0.088189 -0.189933 -0.354599 0.0570859 -0.201477 -27.7686 17.4304 1.04761 -30.7458 32.9577 11.7546 -0.0 0.0 -0.0 4.31989 13.6025 8.70271 -10.682 -17.521 59.4095 2.51833 -51.2762 1.20879 -3.61374 -0.14126 0.439708 -1.06445 1.31083 -6.54474 -0.0 0.0 -0.0 10.5685 9.25352 -21.0864 -23.246 4.96011 -56.5377 0.852379 22.8914 -0.17258 45.1398 0.643243 5.58339 3.27552 -29.1896 -30.6615 0.0 0.0 0.0 4.54345 32.1429 -7.99165 -12.2591 0.307553 1.85263 14.9602 -6.55232 -2.15199 16.5309 -0.0 -0.0 -0.0 0.0 -0.0 8.29367 -6.9783 1.54424 -1.12451 -0.044666 -0.166787 12.5087 29.6227 2.21502 -8.62112 0.0 0.0 0.0 0.0 0.0 
3489.5 741.474 -1439.39 1.69461 64.8797 0.445313 -0.303385 -0.0495182 -0.179549 -0.303368 -0.0379927 -0.182336 -0.303234 0.00216426 -0.18624 -0.303281 -0.0272759 -0.184244 -28.0351 17.5867 0.118219 -31.1948 33.5715 11.1443 -0.0 0.0 -0.0 4.33106 14.2911 8.72665 -11.6173 -18.1985 59.3027 2.58267 -51.9791 1.25923 -4.59201 -0.184253 0.557155 -1.18841 1.49425 -7.29364 -0.0 0.0 -0.0 10.5011 9.8323 -20.935 -23.7169 4.99099 -56.7316 0.85198 22.8818 -0.172425 45.4962 0.665573 5.62316 3.27894 -29.6711 -30.7486 0.0 0.0 0.0 4.9712 31.9846 -7.8346 -13.8506 0.318202 2.09657 14.5499 -4.33364 -2.07806 17.8926 -0.0 -0.0 -0.0 0.0 -0.0 8.31234 -7.39392 1.48533 -1.53862 -0.0602874 -0.22842 11.3231 27.6777 1.96635 -7.83136 0.0 0.0 0.0 0.0 0.0 
3484.24 740.868 -1442.24 0.911761 63.5544 1.06322 -0.0889236 0.0950904 -0.185453 -0.0889107 0.106698 -0.179026 -0.0892482 0.14218 -0.15238 -0.0892619 0.11633 -0.172922 -28.0345 17.4694 -0.922099 -31.2281 33.7239 10.1231 -0.0 0.0 -0.0 4.43107 14.7885 8.89285 -11.7567 -17.8377 59.5333 2.57261 -51.8706 1.25131 -6.34362 -0.266229 0.765573 -1.26221 3.29059 -6.97976 -0.0 0.0 -0.0 10.444 9.61182 -20.811 -23.9356 4.99122 -56.8682 0.798015 21.5694 -0.152011 46.2457 0.713339 5.70634 3.17396 -28.8413 -29.9535 0.0 0.0 0.0 4.98427 31.7338 -7.78408 -14.5572 0.320757 2.20496 13.0854 -2.21593 -1.86696 18.8135 -0.0 -0.0 -0.0 0.0 -0.0 8.54755 -6.53914 1.58621 -2.67611 -0.100898 -0.398264 13.0089 29.4709 2.2935 -7.12341 0.0 0.0 0.0 0.0 0.0 
